<svg width="312" height="59" viewBox="0 0 312 59" fill="none" xmlns="http://www.w3.org/2000/svg">
<path d="M4.214 10.112C6.258 10.112 7.798 9.104 7.798 7.326C7.798 3.644 2.03 5.198 2.03 2.692C2.03 1.754 2.814 1.166 4.144 1.166C5.46 1.166 6.314 1.88 6.426 2.986H7.602C7.462 1.222 6.104 0.0879999 4.144 0.0879999C2.184 0.0879999 0.826 1.138 0.826 2.692C0.826 6.192 6.552 4.806 6.552 7.326C6.552 8.516 5.572 9.034 4.214 9.034C2.688 9.034 1.792 8.152 1.666 6.794H0.49C0.616 8.796 2.016 10.112 4.214 10.112ZM17.0485 10L12.8065 4.148L16.6145 0.199999H15.1025L10.5525 4.862V0.199999H9.3485V10H10.5525V6.472L11.9945 4.988L15.6065 10H17.0485ZM19.4252 10V0.199999H18.2352V10H19.4252ZM22.6928 10V2.048L27.7328 10H29.1048V0.199999H27.9148V8.18L22.8608 0.199999H21.5028V10H22.6928ZM34.3605 10.112C36.4045 10.112 37.9445 9.104 37.9445 7.326C37.9445 3.644 32.1765 5.198 32.1765 2.692C32.1765 1.754 32.9605 1.166 34.2905 1.166C35.6065 1.166 36.4605 1.88 36.5725 2.986H37.7485C37.6085 1.222 36.2505 0.0879999 34.2905 0.0879999C32.3305 0.0879999 30.9725 1.138 30.9725 2.692C30.9725 6.192 36.6985 4.806 36.6985 7.326C36.6985 8.516 35.7185 9.034 34.3605 9.034C32.8345 9.034 31.9385 8.152 31.8125 6.794H30.6365C30.7625 8.796 32.1625 10.112 34.3605 10.112ZM42.7072 10V1.278H45.8292V0.199999H38.3672V1.278H41.5032V10H42.7072ZM52.2792 5.352C53.2032 4.918 53.8192 4.148 53.8192 3.07C53.8192 1.362 52.6292 0.199999 50.6972 0.199999H46.9872V10H48.1772V6.01H50.8372C51.7612 6.01 52.3772 6.682 52.4332 7.634L52.6012 10H53.7492L53.5812 7.564C53.5112 6.57 53.0492 5.772 52.2792 5.352ZM50.6972 1.264C52.0692 1.264 52.5872 2.104 52.5872 3.07C52.5872 4.036 52.0692 4.932 50.6972 4.932H48.1772V1.264H50.6972ZM57.228 10V0.199999H56.038V10H57.228ZM63.5755 10.112C65.7455 10.112 67.4955 8.782 67.7055 6.948H66.4735C66.3335 8.152 65.1015 9.034 63.5755 9.034C61.5315 9.034 60.0895 7.648 60.0895 5.1C60.0895 2.552 61.5315 1.166 63.5755 1.166C65.0735 1.166 66.2915 2.048 66.4595 3.252H67.7195C67.4535 1.418 65.7035 0.0879999 63.5755 0.0879999C61.1395 0.0879999 58.8575 1.712 58.8575 5.1C58.8575 8.474 61.1255 10.112 63.5755 10.112ZM75.4376 10C78.1816 10 80.3236 8.222 80.3236 5.1C80.3236 1.978 78.1816 0.199999 75.4376 0.199999H72.5536V10H75.4376ZM73.7436 1.278H75.4096C77.3136 1.278 79.0776 2.398 79.0776 5.1C79.0776 7.802 77.3136 8.922 75.4096 8.922H73.7436V1.278ZM88.2322 10V8.922H83.1362V5.478H87.1542V4.4H83.1362V1.278H88.0782V0.199999H81.9462V10H88.2322ZM93.8658 10L97.5758 0.199999H96.3578L93.2498 8.614L90.1698 0.199999H88.9378L92.6478 10H93.8658ZM104.994 10V8.922H99.8979V5.478H103.916V4.4H99.8979V1.278H104.84V0.199999H98.7079V10H104.994ZM112.728 10V8.922H107.828V0.199999H106.638V10H112.728ZM117.923 10.112C120.681 10.112 122.739 7.984 122.739 5.1C122.739 2.216 120.681 0.0879999 117.923 0.0879999C115.165 0.0879999 113.121 2.216 113.121 5.1C113.121 7.984 115.165 10.112 117.923 10.112ZM117.923 9.034C115.865 9.034 114.353 7.354 114.353 5.1C114.353 2.846 115.865 1.166 117.923 1.166C119.981 1.166 121.507 2.846 121.507 5.1C121.507 7.354 119.981 9.034 117.923 9.034ZM125.533 10V5.996H128.025C129.971 5.996 131.147 4.82 131.147 3.098C131.147 1.376 129.971 0.199999 128.025 0.199999H124.343V10H125.533ZM125.533 1.264H128.025C129.411 1.264 129.929 2.132 129.929 3.098C129.929 4.064 129.411 4.932 128.025 4.932H125.533V1.264ZM138.832 10V8.922H133.736V5.478H137.754V4.4H133.736V1.278H138.678V0.199999H132.546V10H138.832ZM143.359 10C146.103 10 148.245 8.222 148.245 5.1C148.245 1.978 146.103 0.199999 143.359 0.199999H140.475V10H143.359ZM141.665 1.278H143.331C145.235 1.278 146.999 2.398 146.999 5.1C146.999 7.802 145.235 8.922 143.331 8.922H141.665V1.278ZM161.156 10L157.25 0.199999H156.172L152.266 10H153.512L154.534 7.354H158.902L159.91 10H161.156ZM156.718 1.67L158.482 6.29H154.94L156.718 1.67ZM163.458 10V2.048L168.498 10H169.87V0.199999H168.68V8.18L163.626 0.199999H162.268V10H163.458ZM183.236 10L179.33 0.199999H178.252L174.346 10H175.592L176.614 7.354H180.982L181.99 10H183.236ZM178.798 1.67L180.562 6.29H177.02L178.798 1.67ZM184.348 9.244C184.348 8.89867 184.432 8.656 184.6 8.516C184.768 8.376 184.969 8.306 185.202 8.306C185.445 8.306 185.65 8.376 185.818 8.516C185.995 8.656 186.084 8.89867 186.084 9.244C186.084 9.58 185.995 9.82267 185.818 9.972C185.65 10.1213 185.445 10.196 185.202 10.196C184.969 10.196 184.768 10.1213 184.6 9.972C184.432 9.82267 184.348 9.58 184.348 9.244ZM189.312 10V0.199999H188.122V10H189.312ZM191.362 9.244C191.362 8.89867 191.446 8.656 191.614 8.516C191.782 8.376 191.982 8.306 192.216 8.306C192.458 8.306 192.664 8.376 192.832 8.516C193.009 8.656 193.098 8.89867 193.098 9.244C193.098 9.58 193.009 9.82267 192.832 9.972C192.664 10.1213 192.458 10.196 192.216 10.196C191.982 10.196 191.782 10.1213 191.614 9.972C191.446 9.82267 191.362 9.58 191.362 9.244ZM201.944 10V1.278H205.066V0.199999H197.604V1.278H200.74V10H201.944ZM212.608 4.4H207.414V0.199999H206.224V10H207.414V5.478H212.608V10H213.798V0.199999H212.608V4.4ZM223.828 10L219.922 0.199999H218.844L214.938 10H216.184L217.206 7.354H221.574L222.582 10H223.828ZM219.39 1.67L221.154 6.29H217.612L219.39 1.67ZM227.1 10V1.278H230.222V0.199999H222.76V1.278H225.896V10H227.1ZM239.027 10.112C241.197 10.112 242.947 8.782 243.157 6.948H241.925C241.785 8.152 240.553 9.034 239.027 9.034C236.983 9.034 235.541 7.648 235.541 5.1C235.541 2.552 236.983 1.166 239.027 1.166C240.525 1.166 241.743 2.048 241.911 3.252H243.171C242.905 1.418 241.155 0.0879999 239.027 0.0879999C236.591 0.0879999 234.309 1.712 234.309 5.1C234.309 8.474 236.577 10.112 239.027 10.112ZM249.961 5.352C250.885 4.918 251.501 4.148 251.501 3.07C251.501 1.362 250.311 0.199999 248.379 0.199999H244.669V10H245.859V6.01H248.519C249.443 6.01 250.059 6.682 250.115 7.634L250.283 10H251.431L251.263 7.564C251.193 6.57 250.731 5.772 249.961 5.352ZM248.379 1.264C249.751 1.264 250.269 2.104 250.269 3.07C250.269 4.036 249.751 4.932 248.379 4.932H245.859V1.264H248.379ZM260.006 10V8.922H254.91V5.478H258.928V4.4H254.91V1.278H259.852V0.199999H253.72V10H260.006ZM269.601 10L265.695 0.199999H264.617L260.711 10H261.957L262.979 7.354H267.347L268.355 10H269.601ZM265.163 1.67L266.927 6.29H263.385L265.163 1.67ZM272.873 10V1.278H275.995V0.199999H268.533V1.278H271.669V10H272.873ZM283.439 10V8.922H278.343V5.478H282.361V4.4H278.343V1.278H283.285V0.199999H277.153V10H283.439ZM288.261 10.112C290.305 10.112 291.845 9.104 291.845 7.326C291.845 3.644 286.077 5.198 286.077 2.692C286.077 1.754 286.861 1.166 288.191 1.166C289.507 1.166 290.361 1.88 290.473 2.986H291.649C291.509 1.222 290.151 0.0879999 288.191 0.0879999C286.231 0.0879999 284.873 1.138 284.873 2.692C284.873 6.192 290.599 4.806 290.599 7.326C290.599 8.516 289.619 9.034 288.261 9.034C286.735 9.034 285.839 8.152 285.713 6.794H284.537C284.663 8.796 286.063 10.112 288.261 10.112ZM8.988 34L5.082 24.2H4.004L0.098 34H1.344L2.366 31.354H6.734L7.742 34H8.988ZM4.55 25.67L6.314 30.29H2.772L4.55 25.67ZM19.8477 28.4H14.6537V24.2H13.4637V34H14.6537V29.478H19.8477V34H21.0377V24.2H19.8477V28.4ZM24.3061 34V24.2H23.1161V34H24.3061ZM30.6397 34.112C32.0817 34.112 33.2997 33.37 33.7617 32.292V34H34.8677V30.64C34.8677 29.52 33.8457 28.96 33.1317 28.96H30.7097V29.996H32.9217C33.3977 29.996 33.6917 30.29 33.6917 30.738C33.6917 32.152 32.2637 33.062 30.6537 33.062C28.6377 33.062 27.1537 31.634 27.1537 29.1C27.1537 26.552 28.6377 25.166 30.6537 25.166C32.1657 25.166 33.3977 26.048 33.6217 27.294H34.8817C34.6577 25.418 32.9077 24.088 30.6677 24.088C28.2317 24.088 25.9357 25.754 25.9357 29.1C25.9357 32.446 28.2177 34.112 30.6397 34.112ZM42.9942 28.4H37.8002V24.2H36.6102V34H37.8002V29.478H42.9942V34H44.1842V24.2H42.9942V28.4ZM52.3526 34V32.922H47.4526V24.2H46.2626V34H52.3526ZM55.8235 34V29.898L59.2955 24.2H57.9375L55.2355 28.75L52.5195 24.2H51.1615L54.6335 29.898V34H55.8235ZM64.3673 30.052V29.072H59.2573V30.052H64.3673ZM67.3178 34V29.996H69.8098C71.7558 29.996 72.9318 28.82 72.9318 27.098C72.9318 25.376 71.7558 24.2 69.8098 24.2H66.1278V34H67.3178ZM67.3178 25.264H69.8098C71.1958 25.264 71.7138 26.132 71.7138 27.098C71.7138 28.064 71.1958 28.932 69.8098 28.932H67.3178V25.264ZM80.6169 34V32.922H75.5209V29.478H79.5389V28.4H75.5209V25.278H80.4629V24.2H74.3309V34H80.6169ZM87.5526 29.352C88.4766 28.918 89.0926 28.148 89.0926 27.07C89.0926 25.362 87.9026 24.2 85.9706 24.2H82.2606V34H83.4506V30.01H86.1106C87.0346 30.01 87.6506 30.682 87.7066 31.634L87.8746 34H89.0226L88.8546 31.564C88.7846 30.57 88.3226 29.772 87.5526 29.352ZM85.9706 25.264C87.3426 25.264 87.8606 26.104 87.8606 27.07C87.8606 28.036 87.3426 28.932 85.9706 28.932H83.4506V25.264H85.9706ZM94.3117 34.112C96.3557 34.112 97.8957 33.104 97.8957 31.326C97.8957 27.644 92.1277 29.198 92.1277 26.692C92.1277 25.754 92.9117 25.166 94.2417 25.166C95.5577 25.166 96.4117 25.88 96.5237 26.986H97.6997C97.5597 25.222 96.2017 24.088 94.2417 24.088C92.2817 24.088 90.9237 25.138 90.9237 26.692C90.9237 30.192 96.6497 28.806 96.6497 31.326C96.6497 32.516 95.6697 33.034 94.3117 33.034C92.7857 33.034 91.8897 32.152 91.7637 30.794H90.5877C90.7137 32.796 92.1137 34.112 94.3117 34.112ZM103.8 34.112C106.558 34.112 108.616 31.984 108.616 29.1C108.616 26.216 106.558 24.088 103.8 24.088C101.042 24.088 98.9982 26.216 98.9982 29.1C98.9982 31.984 101.042 34.112 103.8 34.112ZM103.8 33.034C101.742 33.034 100.23 31.354 100.23 29.1C100.23 26.846 101.742 25.166 103.8 25.166C105.858 25.166 107.384 26.846 107.384 29.1C107.384 31.354 105.858 33.034 103.8 33.034ZM111.41 34V26.048L116.45 34H117.822V24.2H116.632V32.18L111.578 24.2H110.22V34H111.41ZM127.851 34L123.945 24.2H122.867L118.961 34H120.207L121.229 31.354H125.597L126.605 34H127.851ZM123.413 25.67L125.177 30.29H121.635L123.413 25.67ZM135.054 34V32.922H130.154V24.2H128.964V34H135.054ZM137.482 34V24.2H136.292V34H137.482ZM142.737 34.112C144.781 34.112 146.321 33.104 146.321 31.326C146.321 27.644 140.553 29.198 140.553 26.692C140.553 25.754 141.337 25.166 142.667 25.166C143.983 25.166 144.837 25.88 144.949 26.986H146.125C145.985 25.222 144.627 24.088 142.667 24.088C140.707 24.088 139.349 25.138 139.349 26.692C139.349 30.192 145.075 28.806 145.075 31.326C145.075 32.516 144.095 33.034 142.737 33.034C141.211 33.034 140.315 32.152 140.189 30.794H139.013C139.139 32.796 140.539 34.112 142.737 34.112ZM154.158 34V32.922H149.062V29.478H153.08V28.4H149.062V25.278H154.004V24.2H147.872V34H154.158ZM158.686 34C161.43 34 163.572 32.222 163.572 29.1C163.572 25.978 161.43 24.2 158.686 24.2H155.802V34H158.686ZM156.992 25.278H158.658C160.562 25.278 162.326 26.398 162.326 29.1C162.326 31.802 160.562 32.922 158.658 32.922H156.992V25.278ZM173.822 29.352C174.746 28.918 175.362 28.148 175.362 27.07C175.362 25.362 174.172 24.2 172.24 24.2H168.53V34H169.72V30.01H172.38C173.304 30.01 173.92 30.682 173.976 31.634L174.144 34H175.292L175.124 31.564C175.054 30.57 174.592 29.772 173.822 29.352ZM172.24 25.264C173.612 25.264 174.13 26.104 174.13 27.07C174.13 28.036 173.612 28.932 172.24 28.932H169.72V25.264H172.24ZM181.538 34.112C184.296 34.112 186.354 31.984 186.354 29.1C186.354 26.216 184.296 24.088 181.538 24.088C178.78 24.088 176.736 26.216 176.736 29.1C176.736 31.984 178.78 34.112 181.538 34.112ZM181.538 33.034C179.48 33.034 177.968 31.354 177.968 29.1C177.968 26.846 179.48 25.166 181.538 25.166C183.596 25.166 185.122 26.846 185.122 29.1C185.122 31.354 183.596 33.034 181.538 33.034ZM191.486 34.112C193.712 34.112 195.182 32.782 195.182 30.64V24.2H194.02V30.696C194.02 32.138 193.012 33.034 191.486 33.034C189.974 33.034 188.966 32.138 188.966 30.696V24.2H187.79V30.64C187.79 32.782 189.26 34.112 191.486 34.112ZM200.563 34V25.278H203.685V24.2H196.223V25.278H199.359V34H200.563ZM206.033 34V24.2H204.843V34H206.033ZM209.3 34V26.048L214.34 34H215.712V24.2H214.522V32.18L209.468 24.2H208.11V34H209.3ZM224.076 34V32.922H218.98V29.478H222.998V28.4H218.98V25.278H223.922V24.2H217.79V34H224.076ZM232.528 34V25.278H235.65V24.2H228.188V25.278H231.324V34H232.528ZM243.461 34L239.555 24.2H238.477L234.571 34H235.817L236.839 31.354H241.207L242.215 34H243.461ZM239.023 25.67L240.787 30.29H237.245L239.023 25.67ZM245.763 34V24.2H244.573V34H245.763ZM253.931 34V32.922H249.031V24.2H247.841V34H253.931ZM259.126 34.112C261.884 34.112 263.942 31.984 263.942 29.1C263.942 26.216 261.884 24.088 259.126 24.088C256.368 24.088 254.324 26.216 254.324 29.1C254.324 31.984 256.368 34.112 259.126 34.112ZM259.126 33.034C257.068 33.034 255.556 31.354 255.556 29.1C255.556 26.846 257.068 25.166 259.126 25.166C261.184 25.166 262.71 26.846 262.71 29.1C262.71 31.354 261.184 33.034 259.126 33.034ZM270.838 29.352C271.762 28.918 272.378 28.148 272.378 27.07C272.378 25.362 271.188 24.2 269.256 24.2H265.546V34H266.736V30.01H269.396C270.32 30.01 270.936 30.682 270.992 31.634L271.16 34H272.308L272.14 31.564C272.07 30.57 271.608 29.772 270.838 29.352ZM269.256 25.264C270.628 25.264 271.146 26.104 271.146 27.07C271.146 28.036 270.628 28.932 269.256 28.932H266.736V25.264H269.256ZM280.883 34V32.922H275.787V29.478H279.805V28.4H275.787V25.278H280.729V24.2H274.597V34H280.883ZM285.41 34C288.154 34 290.296 32.222 290.296 29.1C290.296 25.978 288.154 24.2 285.41 24.2H282.526V34H285.41ZM283.716 25.278H285.382C287.286 25.278 289.05 26.398 289.05 29.1C289.05 31.802 287.286 32.922 285.382 32.922H283.716V25.278ZM298.727 34V25.278H301.849V24.2H294.387V25.278H297.523V34H298.727ZM306.718 34.112C309.476 34.112 311.534 31.984 311.534 29.1C311.534 26.216 309.476 24.088 306.718 24.088C303.96 24.088 301.916 26.216 301.916 29.1C301.916 31.984 303.96 34.112 306.718 34.112ZM306.718 33.034C304.66 33.034 303.148 31.354 303.148 29.1C303.148 26.846 304.66 25.166 306.718 25.166C308.776 25.166 310.302 26.846 310.302 29.1C310.302 31.354 308.776 33.034 306.718 33.034ZM4.536 58L6.972 50.034L9.394 58H10.626L13.622 48.2H12.404L9.968 56.194L7.504 48.2H6.44L3.962 56.194L1.554 48.2H0.308L3.346 58H4.536ZM21.3653 52.4H16.1713V48.2H14.9813V58H16.1713V53.478H21.3653V58H22.5553V48.2H21.3653V52.4ZM32.5857 58L28.6797 48.2H27.6017L23.6957 58H24.9417L25.9637 55.354H30.3317L31.3397 58H32.5857ZM28.1477 49.67L29.9117 54.29H26.3697L28.1477 49.67ZM35.8576 58V49.278H38.9796V48.2H31.5176V49.278H34.6536V58H35.8576ZM47.1965 58V53.898L50.6685 48.2H49.3105L46.6085 52.75L43.8925 48.2H42.5345L46.0065 53.898V58H47.1965ZM55.4017 58.112C58.1597 58.112 60.2177 55.984 60.2177 53.1C60.2177 50.216 58.1597 48.088 55.4017 48.088C52.6437 48.088 50.5997 50.216 50.5997 53.1C50.5997 55.984 52.6437 58.112 55.4017 58.112ZM55.4017 57.034C53.3437 57.034 51.8317 55.354 51.8317 53.1C51.8317 50.846 53.3437 49.166 55.4017 49.166C57.4597 49.166 58.9857 50.846 58.9857 53.1C58.9857 55.354 57.4597 57.034 55.4017 57.034ZM65.3492 58.112C67.5752 58.112 69.0452 56.782 69.0452 54.64V48.2H67.8832V54.696C67.8832 56.138 66.8752 57.034 65.3492 57.034C63.8372 57.034 62.8292 56.138 62.8292 54.696V48.2H61.6532V54.64C61.6532 56.782 63.1232 58.112 65.3492 58.112ZM76.246 53.352C77.17 52.918 77.786 52.148 77.786 51.07C77.786 49.362 76.596 48.2 74.664 48.2H70.954V58H72.144V54.01H74.804C75.728 54.01 76.344 54.682 76.4 55.634L76.568 58H77.716L77.548 55.564C77.478 54.57 77.016 53.772 76.246 53.352ZM74.664 49.264C76.036 49.264 76.554 50.104 76.554 51.07C76.554 52.036 76.036 52.932 74.664 52.932H72.144V49.264H74.664ZM86.5187 58.112C88.5627 58.112 90.1027 57.104 90.1027 55.326C90.1027 51.644 84.3347 53.198 84.3347 50.692C84.3347 49.754 85.1187 49.166 86.4487 49.166C87.7647 49.166 88.6187 49.88 88.7307 50.986H89.9067C89.7667 49.222 88.4087 48.088 86.4487 48.088C84.4887 48.088 83.1307 49.138 83.1307 50.692C83.1307 54.192 88.8567 52.806 88.8567 55.326C88.8567 56.516 87.8767 57.034 86.5187 57.034C84.9927 57.034 84.0967 56.152 83.9707 54.794H82.7947C82.9207 56.796 84.3207 58.112 86.5187 58.112ZM99.3532 58L95.1112 52.148L98.9192 48.2H97.4072L92.8572 52.862V48.2H91.6532V58H92.8572V54.472L94.2992 52.988L97.9112 58H99.3532ZM101.73 58V48.2H100.54V58H101.73ZM104.997 58V50.048L110.037 58H111.409V48.2H110.219V56.18L105.165 48.2H103.807V58H104.997ZM118.013 58V50.048L123.053 58H124.425V48.2H123.235V56.18L118.181 48.2H116.823V58H118.013ZM132.789 58V56.922H127.693V53.478H131.711V52.4H127.693V49.278H132.635V48.2H126.503V58H132.789ZM140.718 58V56.922H135.622V53.478H139.64V52.4H135.622V49.278H140.564V48.2H134.432V58H140.718ZM145.246 58C147.99 58 150.132 56.222 150.132 53.1C150.132 49.978 147.99 48.2 145.246 48.2H142.362V58H145.246ZM143.552 49.278H145.218C147.122 49.278 148.886 50.398 148.886 53.1C148.886 55.802 147.122 56.922 145.218 56.922H143.552V49.278ZM154.933 58.112C156.977 58.112 158.517 57.104 158.517 55.326C158.517 51.644 152.749 53.198 152.749 50.692C152.749 49.754 153.533 49.166 154.863 49.166C156.179 49.166 157.033 49.88 157.145 50.986H158.321C158.181 49.222 156.823 48.088 154.863 48.088C152.903 48.088 151.545 49.138 151.545 50.692C151.545 54.192 157.271 52.806 157.271 55.326C157.271 56.516 156.291 57.034 154.933 57.034C153.407 57.034 152.511 56.152 152.385 54.794H151.209C151.335 56.796 152.735 58.112 154.933 58.112ZM160.039 57.244C160.039 56.8987 160.123 56.656 160.291 56.516C160.459 56.376 160.66 56.306 160.893 56.306C161.136 56.306 161.341 56.376 161.509 56.516C161.687 56.656 161.775 56.8987 161.775 57.244C161.775 57.58 161.687 57.8227 161.509 57.972C161.341 58.1213 161.136 58.196 160.893 58.196C160.66 58.196 160.459 58.1213 160.291 57.972C160.123 57.8227 160.039 57.58 160.039 57.244Z" fill="#1A1B1C"/>
</svg>
